Coordinates
version=1
nRows=16
nColumns=40
inDegrees=yes

Units are S.I. units (second, meters, Newtons, ...)
If the header above contains a line with 'inDegrees', this indicates whether rotational values are in degrees (yes) or radians (no).

endheader
time	pelvis_tilt	pelvis_list	pelvis_rotation	pelvis_tx	pelvis_ty	pelvis_tz	hip_flexion_r	hip_adduction_r	hip_rotation_r	knee_angle_r	knee_angle_r_beta	ankle_angle_r	subtalar_angle_r	mtp_angle_r	hip_flexion_l	hip_adduction_l	hip_rotation_l	knee_angle_l	knee_angle_l_beta	ankle_angle_l	subtalar_angle_l	mtp_angle_l	lumbar_extension	lumbar_bending	lumbar_rotation	arm_flex_r	arm_add_r	arm_rot_r	elbow_flex_r	pro_sup_r	wrist_flex_r	wrist_dev_r	arm_flex_l	arm_add_l	arm_rot_l	elbow_flex_l	pro_sup_l	wrist_flex_l	wrist_dev_l
      3.56000000	     -9.93346544	     -2.87871699	     -0.24689942	     -0.23823098	      1.18849776	     -0.91964220	      8.85374506	     -0.91137408	    -16.70567273	      8.21169925	      0.14332119	    -38.84433011	      0.00000000	      0.00000000	      9.84999454	     -5.94159812	    -23.28778601	      6.77015562	      0.11816151	    -38.10430287	      0.00000000	      0.00000000	     -3.56998323	      4.77247373	    -11.69937767	    -16.77146146	    -41.05926717	     38.61020125	     84.44871590	     87.06041551	      0.00000000	      0.00000000	    -24.12933779	    -41.32446791	     43.41219960	     81.96180965	     86.02983490	      0.00000000	      0.00000000
      3.56500000	     -9.40468233	     -2.85844348	     -0.31311898	     -0.23674994	      1.19596218	     -0.91999420	      7.78338725	     -0.74936382	    -16.00941296	      7.35831949	      0.12842690	    -38.85429277	      0.00000000	      0.00000000	      8.82802894	     -5.62838380	    -23.09480451	      6.09695839	      0.10641200	    -38.12014784	      0.00000000	      0.00000000	     -3.76456845	      4.82422469	    -11.59468576	    -16.72586999	    -41.27786733	     38.88070319	     84.50585052	     87.04499117	      0.00000000	      0.00000000	    -23.66821009	    -41.33706678	     44.30263491	     81.63866392	     86.04701048	      0.00000000	      0.00000000
      3.57000000	     -8.92853395	     -2.99628821	     -0.28912132	     -0.23523122	      1.20317949	     -0.92043502	      6.96862921	     -0.56605404	    -16.50341878	      6.95061698	      0.12131115	    -38.76865203	      0.00000000	      0.00000000	      7.97312027	     -5.54535055	    -23.22717957	      5.65578173	      0.09871201	    -37.85085040	      0.00000000	      0.00000000	     -3.90191726	      5.08182791	    -11.61850114	    -16.75803370	    -41.49578736	     38.96355648	     84.61523046	     87.04336560	      0.00000000	      0.00000000	    -23.47891083	    -41.10622064	     44.66188300	     81.13704842	     85.99980080	      0.00000000	      0.00000000
      3.57500000	     -8.77086098	     -3.07297439	     -0.58217725	     -0.23369589	      1.20964367	     -0.92057782	      6.58891944	     -0.45595985	    -16.93344998	      6.67047270	      0.11642171	    -38.55200850	      0.00000000	      0.00000000	      7.43679602	     -5.48372839	    -23.59977117	      5.29686819	      0.09244779	    -37.52491315	      0.00000000	      0.00000000	     -3.64954705	      5.26383686	    -11.31487097	    -16.87457911	    -41.76684382	     39.06315783	     84.63668023	     87.04919276	      0.00000000	      0.00000000	    -23.40883787	    -40.85368477	     44.74645921	     80.91978831	     85.99141825	      0.00000000	      0.00000000
      3.58000000	     -7.95942453	     -3.30201696	     -0.60911847	     -0.23171761	      1.21682497	     -0.92101530	      5.40411948	     -0.23144301	    -18.17959049	      6.28660443	      0.10972195	    -38.51705334	      0.00000000	      0.00000000	      6.10135583	     -5.51373023	    -24.59212536	      4.67228584	      0.08154677	    -37.39241560	      0.00000000	      0.00000000	     -4.11926213	      5.63312679	    -11.25323960	    -16.93513802	    -42.04013898	     39.08665912	     84.97937645	     87.04250114	      0.00000000	      0.00000000	    -23.05748105	    -40.56391896	     45.11997244	     80.28096851	     85.97700517	      0.00000000	      0.00000000
      3.58500000	     -7.86800014	     -3.28609545	     -0.98258962	     -0.23032143	      1.22273462	     -0.92103352	      5.11983501	     -0.24739106	    -18.93175186	      6.02925969	      0.10523043	    -38.32152381	      0.00000000	      0.00000000	      5.58535738	     -5.36593034	    -25.56164680	      4.26398443	      0.07442057	    -37.10464659	      0.00000000	      0.00000000	     -3.83227923	      5.70110457	    -10.83772798	    -17.08776904	    -42.25298421	     39.13448782	     85.08881344	     87.04151639	      0.00000000	      0.00000000	    -22.97694941	    -40.32941363	     45.11742884	     80.04874273	     85.95809605	      0.00000000	      0.00000000
      3.59000000	     -7.44857006	     -3.30042314	     -1.28084046	     -0.22872973	      1.22896010	     -0.92139520	      4.64754205	     -0.36718872	    -20.45050830	      6.18756581	      0.10799340	    -38.19302800	      0.00000000	      0.00000000	      4.75112818	     -5.21916232	    -27.25457615	      3.86402567	      0.06743997	    -37.06506842	      0.00000000	      0.00000000	     -3.93172309	      5.83596093	    -10.51373448	    -17.31259247	    -42.47586869	     38.88960781	     85.37992342	     87.02309957	      0.00000000	      0.00000000	    -22.87596418	    -39.89258451	     44.95524657	     79.53502154	     85.92397898	      0.00000000	      0.00000000
      3.59500000	     -7.08792750	     -3.34679887	     -1.48888985	     -0.22726637	      1.23495241	     -0.92178739	      4.17699173	     -0.42469098	    -21.82271175	      6.18880904	      0.10801509	    -38.14321335	      0.00000000	      0.00000000	      4.05922648	     -5.12287631	    -28.58612415	      3.62240746	      0.06322294	    -36.90884571	      0.00000000	      0.00000000	     -3.98803746	      5.99442324	    -10.23073383	    -17.56613482	    -42.62596503	     38.63618497	     85.60045273	     87.02102456	      0.00000000	      0.00000000	    -22.77292223	    -39.54294744	     44.74755663	     79.22655307	     85.92537988	      0.00000000	      0.00000000
      3.60000000	     -7.04789984	     -3.28200008	     -1.84815215	     -0.22626430	      1.24017417	     -0.92204054	      4.13608261	     -0.59568397	    -22.70614928	      6.31002349	      0.11013069	    -38.12548735	      0.00000000	      0.00000000	      3.75904412	     -4.93676501	    -29.91158560	      3.48618008	      0.06084532	    -36.56346081	      0.00000000	      0.00000000	     -3.70380917	      6.03729848	     -9.86618919	    -17.76161664	    -42.79949775	     38.49091802	     85.84331374	     87.02032273	      0.00000000	      0.00000000	    -22.72421062	    -39.21398121	     44.53166990	     78.92236756	     85.88090663	      0.00000000	      0.00000000
      3.60500000	     -6.92512171	     -3.28214540	     -2.00008600	     -0.22533418	      1.24546481	     -0.92260364	      3.99728884	     -0.71235080	    -23.59351726	      6.43422364	      0.11229839	    -38.12590098	      0.00000000	      0.00000000	      3.48857229	     -4.83106937	    -30.96648543	      3.53684267	      0.06172955	    -36.33471598	      0.00000000	      0.00000000	     -3.53262612	      6.15612529	     -9.63047616	    -17.92668306	    -42.94047347	     38.31319450	     86.01536678	     87.01349587	      0.00000000	      0.00000000	    -22.57851180	    -38.85406426	     44.25234502	     78.58080562	     85.86610522	      0.00000000	      0.00000000
      3.61000000	     -6.81535100	     -3.25101833	     -2.30107379	     -0.22437926	      1.25044569	     -0.92282798	      4.01343780	     -0.89445748	    -24.22666139	      6.81827570	      0.11900136	    -38.20117954	      0.00000000	      0.00000000	      3.25473922	     -4.74716281	    -32.08485006	      3.75441285	      0.06552687	    -36.22641741	      0.00000000	      0.00000000	     -3.40706496	      6.22677422	     -9.34812774	    -18.18081839	    -42.99456794	     37.89810138	     86.27791737	     87.00935247	      0.00000000	      0.00000000	    -22.68427137	    -38.51882420	     43.79103217	     78.29434121	     85.87795767	      0.00000000	      0.00000000
      3.61500000	     -6.78971635	     -3.25426328	     -2.39158684	     -0.22364946	      1.25525653	     -0.92328986	      3.97595248	     -0.94677718	    -24.25372712	      6.89586180	      0.12035549	    -38.25939784	      0.00000000	      0.00000000	      3.13401063	     -4.65275932	    -32.18645602	      3.85955832	      0.06736200	    -36.23111130	      0.00000000	      0.00000000	     -3.15500475	      6.31619521	     -9.25279812	    -18.24157157	    -43.01894630	     37.88476670	     86.29954978	     87.01204843	      0.00000000	      0.00000000	    -22.59100485	    -38.29219981	     43.69435916	     78.27262229	     85.87451063	      0.00000000	      0.00000000
      3.62000000	     -6.75964578	     -3.27165246	     -2.45077603	     -0.22299200	      1.25977273	     -0.92371715	      3.93154364	     -0.96764484	    -24.23442612	      6.94697278	      0.12124755	    -38.30204708	      0.00000000	      0.00000000	      3.00355150	     -4.56491325	    -32.19432955	      3.93928443	      0.06875348	    -36.25649575	      0.00000000	      0.00000000	     -2.91887136	      6.42009550	     -9.21922115	    -18.23956000	    -43.01407477	     37.86725978	     86.32023326	     87.01169920	      0.00000000	      0.00000000	    -22.58364279	    -38.24691390	     43.66612491	     78.25030047	     85.87378673	      0.00000000	      0.00000000
      3.62500000	     -6.95504677	     -3.17909985	     -2.79812831	     -0.22282005	      1.26388119	     -0.92393644	      4.50750839	     -1.19781826	    -23.43518885	      7.61770814	      0.13295409	    -38.49523566	      0.00000000	      0.00000000	      3.35478165	     -4.54581832	    -32.32759832	      4.59910248	      0.08026948	    -36.25905366	      0.00000000	      0.00000000	     -2.58652816	      6.43388394	     -8.86146612	    -18.47547875	    -43.09841196	     37.62725050	     86.63219172	     87.01681475	      0.00000000	      0.00000000	    -22.57587189	    -37.66686719	     43.17517633	     77.51419645	     85.86832940	      0.00000000	      0.00000000
      3.63000000	     -6.87883065	     -3.20286755	     -2.77722005	     -0.22259521	      1.26803658	     -0.92430381	      4.55859013	     -1.22950219	    -22.97584012	      7.86651908	      0.13729666	    -38.63213995	      0.00000000	      0.00000000	      3.33092492	     -4.57049248	    -31.96789073	      5.02488832	      0.08770085	    -36.51873126	      0.00000000	      0.00000000	     -2.49328098	      6.50875695	     -8.84461153	    -18.52737877	    -43.08661369	     37.57187420	     86.62828600	     87.01800999	      0.00000000	      0.00000000	    -22.52152826	    -37.55356270	     43.03430045	     77.51087039	     85.86979235	      0.00000000	      0.00000000
      3.63500000	     -7.38485788	     -3.10978231	     -2.98886967	     -0.22195306	      1.27126079	     -0.92452958	      5.24267505	     -1.32453784	    -21.74271956	      8.10156619	      0.14139900	    -38.71269452	      0.00000000	      0.00000000	      3.91195267	     -4.49851012	    -31.28024801	      5.43781915	      0.09490785	    -36.52750201	      0.00000000	      0.00000000	     -1.68467299	      6.50624763	     -8.70118702	    -18.72213817	    -43.09428486	     37.54638176	     86.65660176	     87.02500791	      0.00000000	      0.00000000	    -22.66546621	    -37.28794631	     42.93912497	     77.19793856	     85.90169531	      0.00000000	      0.00000000
